# xmcd CD database file
#
# Track frame offsets:
#	150
#	13087
#	30460
#	43545
#	56811
#	70467
#	86079
#	99252
#	117350
#	130103
#	142223
#	156825
#	168361
#	186415
#
# Disc length: 2642 seconds
#
# Revision: 0
# Processed by: cddbd v1.4PL0 Copyright (c) Steve Scherf et al.
# Submitted via: CDex 1.50beta9
#
DISCID=c50a500e
DTITLE=Martin Cuffe - I Hope You Dance
DYEAR=2001
DGENRE=Country
TTITLE0=Raining Back Home In Donegal
TTITLE1=Just For The Love Of It
TTITLE2=Gentle Mother
TTITLE3=Country Road
TTITLE4=Same Old Me
TTITLE5=My Father Came From Roscommon
TTITLE6=Crazy About The Girl
TTITLE7=Little Isle Of Green
TTITLE8=I'll Forget You
TTITLE9=Married In Gretna Green
TTITLE10=The Night That Ruby Fell
TTITLE11=The One And Only Girl From Donegal
TTITLE12=Love Me
TTITLE13=Hihway Forty Blues
EXTD=YEAR: 2001
EXTT0=
EXTT1=
EXTT2=
EXTT3=
EXTT4=
EXTT5=
EXTT6=
EXTT7=
EXTT8=
EXTT9=
EXTT10=
EXTT11=
EXTT12=
EXTT13=
PLAYORDER=
